{"title":"101.Ways.to.Leave.a.Game.Show.US.S01E04.720p.HDTV.x264-MOMENTUM","uid":12156938,"size":891446557,"categoryP":"video","categoryS":"hd___tv_shows","magnet":"?xt=urn:btih:98235bdbc0ae3fc2492d8fa3b39ff985eca33531&amp;dn=101.Ways.to.Leave.a.Game.Show.US.S01E04.720p.HDTV.x264-MOMENTUM&amp;tr=udp%3A%2F%2Ftracker.openbittorrent.com%3A80&amp;tr=udp%3A%2F%2Fopen.demonii.com%3A1337&amp;tr=udp%3A%2F%2Ftracker.coppersurfer.tk%3A6969&amp;tr=udp%3A%2F%2Fexodus.desync.com%3A6969","seeders":0,"leechers":0,"uploader":"orangebirds","files":2,"time":1437803017,"description":"101.Ways.to.Leave.a.Game.Show.US.S01E04.720p.HDTV.x264-MOMENTUM\n\nAudio in AC3 5.1\n\nPlease help me seed, and don't forget to leave a comment!\n\nGeneral\nUnique ID                                : 68314755795973512043817652879045857496 (0x3364F1818DFBDE0CF90BD3909FE690D8)\nComplete name                            : 101.ways.to.leave.a.game.show.us.s01e04.720p.hdtv.x264-momentum.mkv\nFormat                                   : Matroska\nFormat version                           : Version 2\nFile size                                : 850 MiB\nDuration                                 : 42mn 29s\nOverall bit rate                         : 2 797 Kbps\nEncoded date                             : UTC 2011-07-13 10:12:10\nWriting application                      : mkvmerge v4.8.0 ('I Got The...') built on Jun 13 2011 20:36:23\nWriting library                          : libebml v1.2.0 + libmatroska v1.1.0\n\nVideo\nID                                       : 1\nFormat                                   : AVC\nFormat/Info                              : Advanced Video Codec\nFormat profile                           : &lt;a class=&quot;__cf_email__&quot; href=&quot;/cdn-cgi/l/email-protection&quot; data-cfemail=&quot;f3bb9a949bb3bfc7ddc2&quot;&gt;[email&amp;#160;protected]&lt;/a&gt;&lt;script data-cfhash='f9e31' type=&quot;text/javascript&quot;&gt;\n/* &lt;![CDATA[ */!function(){try{var t=&quot;currentScript&quot;in document?document.currentScript:function(){for(var t=document.getElementsByTagName(&quot;script&quot;),e=t.length;e--;)if(t[e].getAttribute(&quot;data-cfhash&quot;))return t[e]}();if(t&amp;&amp;t.previousSibling){var e,r,n,i,c=t.previousSibling,a=c.getAttribute(&quot;data-cfemail&quot;);if(a){for(e=&quot;&quot;,r=parseInt(a.substr(0,2),16),n=2;a.length-n;n+=2)i=parseInt(a.substr(n,2),16)^r,e+=String.fromCharCode(i);e=document.createTextNode(e),c.parentNode.replaceChild(e,c)}t.parentNode.removeChild(t);}}catch(u){}}()/* ]]&gt; */&lt;/script&gt;\nFormat settings, CABAC                   : Yes\nFormat settings, ReFrames                : 5 frames\nMuxing mode                              : Header stripping\nCodec ID                                 : V_MPEG4/ISO/AVC\nDuration                                 : 42mn 29s\nBit rate                                 : 2 357 Kbps\nWidth                                    : 1 276 pixels\nHeight                                   : 718 pixels\nDisplay aspect ratio                     : 16:9\nOriginal display aspect ratio            : 16:9\nFrame rate mode                          : Constant\nFrame rate                               : 59.880 fps\nOriginal frame rate                      : 59.940 fps\nColor space                              : YUV\nChroma subsampling                       : 4:2:0\nBit depth                                : 8 bits\nScan type                                : Progressive\nBits/(Pixel*Frame)                       : 0.043\nStream size                              : 717 MiB (84%)\nWriting library                          : x264 core 116 r2019 9cc407d\nEncoding settings                        : cabac=1 / ref=5 / deblock=1:0:0 / analyse=0x3:0x113 / me=umh / subme=8 / psy=1 / psy_rd=1.00:0.00 / mixed_ref=1 / me_range=16 / chroma_me=1 / trellis=1 / 8x8dct=1 / cqm=0 / deadzone=21,11 / fast_pskip=1 / chroma_qp_offset=-2 / threads=14 / sliced_threads=0 / nr=0 / decimate=1 / interlaced=0 / bluray_compat=0 / constrained_intra=0 / bframes=3 / b_pyramid=2 / b_adapt=2 / b_bias=0 / direct=3 / weightb=1 / open_gop=0 / weightp=2 / keyint=300 / keyint_min=30 / scenecut=40 / intra_refresh=0 / rc_lookahead=50 / rc=crf / mbtree=1 / crf=22.0 / qcomp=0.60 / qpmin=0 / qpmax=69 / qpstep=4 / ip_ratio=1.40 / aq=1:1.00\nLanguage                                 : English\nDefault                                  : Yes\nForced                                   : No\n\nAudio\nID                                       : 2\nFormat                                   : AC-3\nFormat/Info                              : Audio Coding 3\nMode extension                           : CM (complete main)\nFormat settings, Endianness              : Big\nMuxing mode                              : Header stripping\nCodec ID                                 : A_AC3\nDuration                                 : 42mn 29s\nBit rate mode                            : Constant\nBit rate                                 : 384 Kbps\nChannel(s)                               : 6 channels\nChannel positions                        : Front: L C R, Side: L R, LFE\nSampling rate                            : 48.0 KHz\nBit depth                                : 16 bits\nCompression mode                         : Lossy\nStream size                              : 117 MiB (14%)\nDefault                                  : Yes\nForced                                   : No","torrent":{"xt":"urn:btih:98235bdbc0ae3fc2492d8fa3b39ff985eca33531","amp;dn":"101.Ways.to.Leave.a.Game.Show.US.S01E04.720p.HDTV.x264-MOMENTUM","amp;tr":["udp%3A%2F%2Ftracker.openbittorrent.com%3A80","udp%3A%2F%2Fopen.demonii.com%3A1337","udp%3A%2F%2Ftracker.coppersurfer.tk%3A6969","udp%3A%2F%2Fexodus.desync.com%3A6969"],"infoHash":"98235bdbc0ae3fc2492d8fa3b39ff985eca33531","infoHashBuffer":{"type":"Buffer","data":[152,35,91,219,192,174,63,194,73,45,143,163,179,159,249,133,236,163,53,49]},"announce":[],"urlList":[]}}